<svg width="974" height="65" viewBox="0 0 974 65" fill="none" xmlns="http://www.w3.org/2000/svg">
<path d="M30.4319 64.0329C25.8239 64.0329 21.6319 63.2329 17.8559 61.6329C14.1439 59.9689 10.9439 57.6969 8.2559 54.8169C5.6319 51.9369 3.5839 48.6409 2.1119 44.9289C0.703899 41.1529 -0.000101328 37.1529 -0.000101328 32.9289C-0.000101328 27.7449 0.991899 23.2009 2.9759 19.2969C5.0239 15.3929 7.7119 12.1609 11.0399 9.60086C14.3679 6.97686 18.0159 5.02486 21.9839 3.74485C25.9519 2.46486 29.8879 1.82486 33.7919 1.82486C38.5279 1.82486 42.7519 2.68886 46.4639 4.41686C50.2399 6.08086 53.4399 8.35286 56.0639 11.2329C58.6879 14.1129 60.6719 17.3769 62.0159 21.0249C63.4239 24.6729 64.1279 28.4169 64.1279 32.2569C64.1279 36.7369 63.2319 40.8969 61.4399 44.7369C59.6479 48.5769 57.1839 51.9369 54.0479 54.8169C50.9759 57.6969 47.3919 59.9689 43.2959 61.6329C39.2639 63.2329 34.9759 64.0329 30.4319 64.0329ZM33.7919 62.0169C38.1439 62.0169 42.0479 60.9929 45.5039 58.9449C48.9599 56.8329 51.7119 53.7609 53.7599 49.7289C55.8079 45.6969 56.8319 40.7689 56.8319 34.9449C56.8319 28.9289 55.7119 23.6169 53.4719 19.0089C51.2959 14.3369 48.1599 10.6889 44.0639 8.06486C40.0319 5.37686 35.2639 4.03286 29.7599 4.03286C22.6559 4.03286 17.1199 6.33686 13.1519 10.9449C9.2479 15.4889 7.2959 21.6969 7.2959 29.5689C7.2959 34.1129 7.9039 38.3689 9.1199 42.3369C10.3999 46.2409 12.2239 49.6969 14.5919 52.7049C16.9599 55.6489 19.7759 57.9529 23.0399 59.6169C26.3039 61.2169 29.8879 62.0169 33.7919 62.0169ZM138.108 13.4409C138.108 10.3049 137.404 7.96886 135.996 6.43286C134.652 4.83286 132.572 4.03286 129.756 4.03286C129.564 4.03286 129.468 3.84086 129.468 3.45686C129.468 3.07286 129.564 2.88086 129.756 2.88086C131.228 2.88086 132.732 2.94486 134.268 3.07286C135.804 3.13686 137.5 3.16886 139.356 3.16886C140.828 3.16886 142.332 3.13686 143.868 3.07286C145.404 2.94486 146.812 2.88086 148.092 2.88086C148.22 2.88086 148.284 3.07286 148.284 3.45686C148.284 3.84086 148.22 4.03286 148.092 4.03286C145.532 4.03286 143.612 4.83286 142.332 6.43286C141.052 7.96886 140.412 10.3049 140.412 13.4409V40.7049C140.412 45.6329 139.452 49.8569 137.532 53.3769C135.676 56.8329 133.052 59.4889 129.66 61.3449C126.268 63.2009 122.3 64.1289 117.756 64.1289C113.02 64.1289 108.86 63.2009 105.276 61.3449C101.756 59.4889 99.0039 56.8649 97.0199 53.4729C95.0999 50.0169 94.1399 45.9849 94.1399 41.3769V10.6569C94.1399 8.80086 93.9479 7.42486 93.5639 6.52886C93.1799 5.56886 92.3799 4.92885 91.1639 4.60885C90.0119 4.22486 88.2839 4.03286 85.9799 4.03286C85.8519 4.03286 85.7879 3.84086 85.7879 3.45686C85.7879 3.07286 85.8519 2.88086 85.9799 2.88086C87.5159 2.88086 89.2119 2.94486 91.0679 3.07286C92.9879 3.13686 95.0359 3.16886 97.2119 3.16886C99.4519 3.16886 101.532 3.13686 103.452 3.07286C105.372 2.94486 107.036 2.88086 108.444 2.88086C108.636 2.88086 108.732 3.07286 108.732 3.45686C108.732 3.84086 108.636 4.03286 108.444 4.03286C106.14 4.03286 104.412 4.22486 103.26 4.60885C102.108 4.99286 101.34 5.66486 100.956 6.62486C100.572 7.58486 100.38 8.99286 100.38 10.8489V38.0169C100.38 45.6329 102.076 51.4249 105.468 55.3929C108.924 59.2969 113.724 61.2489 119.868 61.2489C125.628 61.2489 130.108 59.4569 133.308 55.8729C136.508 52.2249 138.108 47.2009 138.108 40.8009V13.4409ZM217.811 62.8809C216.723 62.8809 214.963 61.6009 212.531 59.0409C210.163 56.4809 207.251 52.8329 203.795 48.0969C200.403 43.2969 196.595 37.6009 192.371 31.0089L197.747 29.2809C203.187 37.3449 207.795 43.7449 211.571 48.4809C215.411 53.1529 218.771 56.5449 221.651 58.6569C224.595 60.7049 227.411 61.7289 230.099 61.7289C230.291 61.7289 230.387 61.9209 230.387 62.3049C230.387 62.6889 230.291 62.8809 230.099 62.8809C226.899 62.8809 224.275 62.8809 222.227 62.8809C220.243 62.8809 218.771 62.8809 217.811 62.8809ZM191.699 2.59286C196.947 2.59286 200.947 3.68086 203.699 5.85686C206.515 7.96885 207.923 10.8809 207.923 14.5929C207.923 17.0249 207.379 19.3289 206.291 21.5049C205.203 23.6169 203.731 25.5049 201.875 27.1689C200.019 28.7689 197.843 30.0489 195.347 31.0089C192.915 31.9689 190.355 32.4489 187.667 32.4489C187.027 32.4489 186.291 32.4489 185.459 32.4489C184.691 32.3849 183.987 32.3209 183.347 32.2569V55.1049C183.347 56.9609 183.507 58.3689 183.827 59.3289C184.211 60.2889 184.979 60.9289 186.131 61.2489C187.347 61.5689 189.139 61.7289 191.507 61.7289C191.699 61.7289 191.795 61.9209 191.795 62.3049C191.795 62.6889 191.699 62.8809 191.507 62.8809C189.971 62.8809 188.243 62.8489 186.323 62.7849C184.467 62.7209 182.419 62.6889 180.179 62.6889C178.067 62.6889 176.019 62.7209 174.035 62.7849C172.115 62.8489 170.355 62.8809 168.755 62.8809C168.627 62.8809 168.563 62.6889 168.563 62.3049C168.563 61.9209 168.627 61.7289 168.755 61.7289C171.123 61.7289 172.883 61.5689 174.035 61.2489C175.251 60.9289 176.083 60.2889 176.531 59.3289C176.979 58.3689 177.203 56.9609 177.203 55.1049V10.6569C177.203 8.80086 176.979 7.42486 176.531 6.52886C176.147 5.56886 175.379 4.92885 174.227 4.60885C173.075 4.22486 171.315 4.03286 168.947 4.03286C168.755 4.03286 168.659 3.84086 168.659 3.45686C168.659 3.07286 168.755 2.88086 168.947 2.88086C170.483 2.88086 172.211 2.94486 174.131 3.07286C176.051 3.13686 178.067 3.16886 180.179 3.16886C181.843 3.16886 183.795 3.07286 186.035 2.88086C188.275 2.68886 190.163 2.59286 191.699 2.59286ZM201.395 17.9529C201.395 14.4329 200.851 11.6809 199.763 9.69686C198.739 7.64886 197.363 6.20886 195.635 5.37686C193.907 4.48086 191.923 4.03286 189.683 4.03286C188.147 4.03286 186.899 4.16086 185.939 4.41686C184.979 4.67286 184.307 5.28086 183.923 6.24086C183.539 7.20086 183.347 8.73685 183.347 10.8489V29.8569C184.243 29.9849 185.203 30.0809 186.227 30.1449C187.251 30.2089 188.179 30.2409 189.011 30.2409C193.427 30.2409 196.595 29.3129 198.515 27.4569C200.435 25.5369 201.395 22.3689 201.395 17.9529ZM261.381 10.7529V54.7209C261.381 56.4489 261.573 57.7609 261.957 58.6569C262.341 59.5529 263.077 60.1609 264.165 60.4809C265.317 60.7369 266.949 60.8649 269.061 60.8649H279.525C283.237 60.8649 286.181 59.7129 288.357 57.4089C290.533 55.0409 291.941 51.9689 292.581 48.1929C292.581 48.0009 292.741 47.9369 293.061 48.0009C293.445 48.0009 293.637 48.0969 293.637 48.2889C293.445 50.0169 293.253 52.1289 293.061 54.6249C292.869 57.0569 292.773 59.3289 292.773 61.4409C292.773 62.4009 292.293 62.8809 291.333 62.8809H246.981C246.853 62.8809 246.789 62.6889 246.789 62.3049C246.789 61.9209 246.853 61.7289 246.981 61.7289C249.285 61.7289 251.013 61.5689 252.165 61.2489C253.381 60.9289 254.181 60.2889 254.565 59.3289C254.949 58.3689 255.141 56.9609 255.141 55.1049V10.6569C255.141 8.80086 254.949 7.42486 254.565 6.52886C254.181 5.56886 253.381 4.92885 252.165 4.60885C251.013 4.22486 249.285 4.03286 246.981 4.03286C246.853 4.03286 246.789 3.84086 246.789 3.45686C246.789 3.07286 246.853 2.88086 246.981 2.88086C248.517 2.88086 250.245 2.94486 252.165 3.07286C254.085 3.13686 256.101 3.16886 258.213 3.16886C260.453 3.16886 262.533 3.13686 264.453 3.07286C266.373 2.94486 268.069 2.88086 269.541 2.88086C269.733 2.88086 269.829 3.07286 269.829 3.45686C269.829 3.84086 269.733 4.03286 269.541 4.03286C267.237 4.03286 265.477 4.22486 264.261 4.60885C263.109 4.92885 262.341 5.56886 261.957 6.52886C261.573 7.48886 261.381 8.89686 261.381 10.7529ZM328.312 55.1049C328.312 56.9609 328.504 58.3689 328.888 59.3289C329.272 60.2889 330.04 60.9289 331.192 61.2489C332.408 61.5689 334.168 61.7289 336.472 61.7289C336.664 61.7289 336.76 61.9209 336.76 62.3049C336.76 62.6889 336.664 62.8809 336.472 62.8809C334.936 62.8809 333.208 62.8489 331.288 62.7849C329.432 62.7209 327.352 62.6889 325.048 62.6889C322.936 62.6889 320.888 62.7209 318.904 62.7849C316.984 62.8489 315.256 62.8809 313.72 62.8809C313.528 62.8809 313.432 62.6889 313.432 62.3049C313.432 61.9209 313.528 61.7289 313.72 61.7289C316.024 61.7289 317.784 61.5689 319 61.2489C320.216 60.9289 321.016 60.2889 321.4 59.3289C321.784 58.3689 321.976 56.9609 321.976 55.1049V10.6569C321.976 8.80086 321.784 7.42486 321.4 6.52886C321.016 5.56886 320.216 4.92885 319 4.60885C317.784 4.22486 316.024 4.03286 313.72 4.03286C313.528 4.03286 313.432 3.84086 313.432 3.45686C313.432 3.07286 313.528 2.88086 313.72 2.88086C315.256 2.88086 316.984 2.94486 318.904 3.07286C320.888 3.13686 322.936 3.16886 325.048 3.16886C327.352 3.16886 329.464 3.13686 331.384 3.07286C333.304 2.94486 335 2.88086 336.472 2.88086C336.664 2.88086 336.76 3.07286 336.76 3.45686C336.76 3.84086 336.664 4.03286 336.472 4.03286C334.168 4.03286 332.408 4.22486 331.192 4.60885C330.04 4.99286 329.272 5.66486 328.888 6.62486C328.504 7.58486 328.312 8.99286 328.312 10.8489V55.1049ZM461.179 0.480856C461.307 0.224855 461.531 0.0968552 461.851 0.0968552C462.171 0.0968552 462.331 0.224855 462.331 0.480856C462.203 1.44086 462.075 2.75286 461.947 4.41686C461.883 6.08086 461.787 7.80886 461.659 9.60086C461.595 11.3929 461.531 13.0569 461.467 14.5929C461.467 16.1289 461.467 17.3129 461.467 18.1449C461.467 18.2729 461.275 18.3369 460.891 18.3369C460.571 18.3369 460.379 18.2729 460.315 18.1449C460.123 13.0889 459.099 9.56886 457.243 7.58486C455.451 5.53686 452.347 4.51286 447.931 4.51286C445.307 4.51286 443.323 4.64086 441.979 4.89686C440.699 5.15286 439.835 5.72886 439.387 6.62486C438.939 7.45686 438.715 8.86486 438.715 10.8489V55.1049C438.715 56.9609 438.939 58.3689 439.387 59.3289C439.835 60.2889 440.699 60.9289 441.979 61.2489C443.323 61.5689 445.339 61.7289 448.027 61.7289C448.219 61.7289 448.315 61.9209 448.315 62.3049C448.315 62.6889 448.219 62.8809 448.027 62.8809C446.299 62.8809 444.379 62.8489 442.267 62.7849C440.219 62.7209 437.947 62.6889 435.451 62.6889C433.147 62.6889 430.907 62.7209 428.731 62.7849C426.619 62.8489 424.699 62.8809 422.971 62.8809C422.843 62.8809 422.779 62.6889 422.779 62.3049C422.779 61.9209 422.843 61.7289 422.971 61.7289C425.659 61.7289 427.643 61.5689 428.923 61.2489C430.267 60.9289 431.195 60.2889 431.707 59.3289C432.219 58.3689 432.475 56.9609 432.475 55.1049V10.6569C432.475 8.73686 432.251 7.36086 431.803 6.52886C431.355 5.69686 430.523 5.15286 429.307 4.89686C428.155 4.64086 426.331 4.51286 423.835 4.51286C421.147 4.51286 419.003 4.64086 417.403 4.89686C415.803 5.08886 414.587 5.63286 413.755 6.52886C412.987 7.42486 412.443 8.80086 412.123 10.6569C411.867 12.4489 411.675 14.9449 411.547 18.1449C411.547 18.2729 411.355 18.3369 410.971 18.3369C410.587 18.3369 410.395 18.2729 410.395 18.1449C410.395 14.9449 410.267 12.4489 410.011 10.6569C409.819 8.80086 409.307 7.42486 408.475 6.52886C407.707 5.63286 406.459 5.08886 404.731 4.89686C403.003 4.64086 400.603 4.51286 397.531 4.51286C395.227 4.51286 393.467 4.67286 392.251 4.99286C391.099 5.24886 390.299 5.82486 389.851 6.72086C389.467 7.61686 389.275 8.99286 389.275 10.8489V55.1049C389.275 56.9609 389.467 58.3689 389.851 59.3289C390.235 60.2889 391.003 60.9289 392.155 61.2489C393.371 61.5689 395.163 61.7289 397.531 61.7289C397.659 61.7289 397.723 61.9209 397.723 62.3049C397.723 62.6889 397.659 62.8809 397.531 62.8809C395.931 62.8809 394.171 62.8489 392.251 62.7849C390.395 62.7209 388.315 62.6889 386.011 62.6889C383.707 62.6889 381.499 62.7209 379.387 62.7849C377.275 62.8489 375.323 62.8809 373.531 62.8809C373.403 62.8809 373.339 62.6889 373.339 62.3049C373.339 61.9209 373.403 61.7289 373.531 61.7289C376.219 61.7289 378.235 61.5689 379.579 61.2489C380.923 60.9289 381.819 60.2889 382.267 59.3289C382.779 58.3689 383.035 56.9609 383.035 55.1049V10.6569C383.035 8.67286 382.779 7.26486 382.267 6.43286C381.819 5.60086 380.923 5.08886 379.579 4.89686C378.235 4.64086 376.219 4.51286 373.531 4.51286C369.563 4.51286 366.587 5.53686 364.603 7.58486C362.619 9.56886 361.147 13.0889 360.187 18.1449C360.187 18.2729 359.995 18.3369 359.611 18.3369C359.291 18.3369 359.131 18.2729 359.131 18.1449C359.259 17.3129 359.387 16.1609 359.515 14.6889C359.707 13.1529 359.867 11.5209 359.995 9.79286C360.123 8.06486 360.219 6.40086 360.283 4.80086C360.411 3.13686 360.475 1.79286 360.475 0.768858C360.475 0.448858 360.667 0.288858 361.051 0.288858C361.435 0.288858 361.627 0.448858 361.627 0.768858C361.627 1.72886 362.235 2.33686 363.451 2.59286C364.731 2.78486 365.819 2.88086 366.715 2.88086C372.219 3.07286 378.651 3.16886 386.011 3.16886C390.235 3.16886 393.595 3.13686 396.091 3.07286C398.651 2.94486 401.083 2.88086 403.387 2.88086C405.819 2.88086 407.547 2.84886 408.571 2.78485C409.595 2.72086 410.203 2.52886 410.395 2.20886C410.651 1.82486 410.811 1.21686 410.875 0.384857C410.875 0.128857 411.067 0.0008564 411.451 0.0008564C411.835 0.0008564 412.027 0.128857 412.027 0.384857C411.963 1.21686 411.995 1.79286 412.123 2.11286C412.251 2.43286 412.699 2.62486 413.467 2.68886C414.235 2.75286 415.483 2.81686 417.211 2.88086C422.395 3.07286 428.475 3.16886 435.451 3.16886C439.931 3.16886 443.515 3.13686 446.203 3.07286C448.891 2.94486 451.483 2.88086 453.979 2.88086C456.155 2.88086 457.819 2.75286 458.971 2.49686C460.123 2.17686 460.859 1.50486 461.179 0.480856ZM497.987 10.7529V54.7209C497.987 56.4489 498.179 57.7609 498.563 58.6569C498.947 59.5529 499.683 60.1609 500.771 60.4809C501.923 60.7369 503.555 60.8649 505.667 60.8649H516.131C519.843 60.8649 522.787 59.7129 524.963 57.4089C527.139 55.0409 528.547 51.9689 529.187 48.1929C529.187 48.0009 529.347 47.9369 529.667 48.0009C530.051 48.0009 530.243 48.0969 530.243 48.2889C530.051 50.0169 529.859 52.1289 529.667 54.6249C529.475 57.0569 529.379 59.3289 529.379 61.4409C529.379 62.4009 528.899 62.8809 527.939 62.8809H483.587C483.459 62.8809 483.395 62.6889 483.395 62.3049C483.395 61.9209 483.459 61.7289 483.587 61.7289C485.891 61.7289 487.619 61.5689 488.771 61.2489C489.987 60.9289 490.787 60.2889 491.171 59.3289C491.555 58.3689 491.747 56.9609 491.747 55.1049V10.6569C491.747 8.80086 491.555 7.42486 491.171 6.52886C490.787 5.56886 489.987 4.92885 488.771 4.60885C487.619 4.22486 485.891 4.03286 483.587 4.03286C483.459 4.03286 483.395 3.84086 483.395 3.45686C483.395 3.07286 483.459 2.88086 483.587 2.88086C485.123 2.88086 486.851 2.94486 488.771 3.07286C490.691 3.13686 492.707 3.16886 494.819 3.16886C497.059 3.16886 499.139 3.13686 501.059 3.07286C502.979 2.94486 504.675 2.88086 506.147 2.88086C506.339 2.88086 506.435 3.07286 506.435 3.45686C506.435 3.84086 506.339 4.03286 506.147 4.03286C503.843 4.03286 502.083 4.22486 500.867 4.60885C499.715 4.92885 498.947 5.56886 498.563 6.52886C498.179 7.48886 497.987 8.89686 497.987 10.7529ZM590.167 62.8809H549.943C549.815 62.8809 549.751 62.6889 549.751 62.3049C549.751 61.9209 549.815 61.7289 549.943 61.7289C552.311 61.7289 554.071 61.5689 555.223 61.2489C556.375 60.9289 557.143 60.2889 557.527 59.3289C557.975 58.3689 558.199 56.9609 558.199 55.1049V10.6569C558.199 8.80086 557.975 7.42486 557.527 6.52886C557.143 5.56886 556.375 4.92885 555.223 4.60885C554.071 4.22486 552.311 4.03286 549.943 4.03286C549.815 4.03286 549.751 3.84086 549.751 3.45686C549.751 3.07286 549.815 2.88086 549.943 2.88086H588.535C589.111 2.88086 589.399 3.16886 589.399 3.74485L589.591 15.5529C589.591 15.7449 589.399 15.8729 589.015 15.9369C588.695 15.9369 588.535 15.8409 588.535 15.6489C588.343 12.1929 587.287 9.53686 585.367 7.68085C583.511 5.82486 581.079 4.89686 578.071 4.89686H572.215C570.039 4.89686 568.375 5.05686 567.223 5.37686C566.135 5.69686 565.367 6.30486 564.919 7.20086C564.535 8.09686 564.343 9.40886 564.343 11.1369V54.7209C564.343 56.3849 564.535 57.6649 564.919 58.5609C565.367 59.4569 566.103 60.0649 567.127 60.3849C568.215 60.7049 569.815 60.8649 571.927 60.8649H579.607C582.679 60.8649 585.239 59.7769 587.287 57.6009C589.399 55.3609 590.775 52.3529 591.415 48.5769C591.415 48.3849 591.607 48.3209 591.991 48.3849C592.375 48.4489 592.567 48.5769 592.567 48.7689C592.311 50.4329 592.087 52.4489 591.895 54.8169C591.767 57.1849 591.703 59.3929 591.703 61.4409C591.703 62.4009 591.191 62.8809 590.167 62.8809ZM584.791 40.5129C584.791 37.6969 584.087 35.6809 582.679 34.4649C581.335 33.2489 579.063 32.6409 575.863 32.6409H561.463V30.6249H576.151C579.223 30.6249 581.399 30.1129 582.679 29.0889C584.023 28.0009 584.695 26.2729 584.695 23.9049C584.695 23.7769 584.887 23.7129 585.271 23.7129C585.655 23.7129 585.847 23.7769 585.847 23.9049C585.847 25.8249 585.815 27.3289 585.751 28.4169C585.751 29.4409 585.751 30.5289 585.751 31.6809C585.751 33.1529 585.783 34.5929 585.847 36.0009C585.911 37.4089 585.943 38.9129 585.943 40.5129C585.943 40.6409 585.751 40.7049 585.367 40.7049C584.983 40.7049 584.791 40.6409 584.791 40.5129ZM651.617 1.82486C654.561 1.82486 657.601 2.11286 660.737 2.68886C663.937 3.26486 666.497 4.09686 668.417 5.18486C668.993 5.50486 669.345 5.79286 669.473 6.04886C669.665 6.30486 669.793 6.78486 669.857 7.48886L670.913 18.2409C670.913 18.3689 670.753 18.4969 670.433 18.6249C670.113 18.6889 669.921 18.5929 669.857 18.3369C668.385 13.1529 665.697 9.47286 661.793 7.29685C657.889 5.05686 653.249 3.93686 647.873 3.93686C642.945 3.93686 638.657 5.02486 635.009 7.20086C631.425 9.31285 628.641 12.3209 626.657 16.2249C624.673 20.0649 623.681 24.5769 623.681 29.7609C623.681 34.3049 624.385 38.5929 625.793 42.6249C627.201 46.5929 629.153 50.0809 631.649 53.0889C634.209 56.0969 637.121 58.4649 640.385 60.1929C643.713 61.8569 647.233 62.6889 650.945 62.6889C655.425 62.6889 659.361 61.4729 662.753 59.0409C666.209 56.5449 668.865 52.6089 670.721 47.2329C670.785 46.9769 670.977 46.9129 671.297 47.0409C671.681 47.1049 671.873 47.2009 671.873 47.3289L670.529 58.1769C670.401 58.9449 670.241 59.4569 670.049 59.7129C669.921 59.9049 669.569 60.1289 668.993 60.3849C665.921 61.6649 662.881 62.5929 659.873 63.1689C656.865 63.7449 653.825 64.0329 650.753 64.0329C644.673 64.0329 639.457 63.1049 635.105 61.2489C630.753 59.3289 627.201 56.8329 624.449 53.7609C621.697 50.6249 619.681 47.2009 618.401 43.4889C617.121 39.7129 616.481 36.0009 616.481 32.3529C616.481 27.7449 617.441 23.5849 619.361 19.8729C621.281 16.1609 623.905 12.9609 627.233 10.2729C630.561 7.58486 634.305 5.50486 638.465 4.03286C642.689 2.56086 647.073 1.82486 651.617 1.82486ZM710.844 31.1049L712.284 29.0889H732.06L732.732 31.1049H710.844ZM757.5 61.7289C757.756 61.7289 757.884 61.9209 757.884 62.3049C757.884 62.6889 757.756 62.8809 757.5 62.8809C755.644 62.8809 753.756 62.8169 751.836 62.6889C749.916 62.5609 748.06 62.4969 746.268 62.4969C744.284 62.4969 742.556 62.5609 741.084 62.6889C739.612 62.8169 737.98 62.8809 736.188 62.8809C735.932 62.8809 735.804 62.6889 735.804 62.3049C735.804 61.9209 735.932 61.7289 736.188 61.7289C739.58 61.7289 741.692 61.2489 742.524 60.2889C743.356 59.2649 743.132 57.3769 741.852 54.6249L720.54 9.60086L722.94 6.62486L704.316 50.6889C702.716 54.5929 702.62 57.4089 704.028 59.1369C705.436 60.8649 708.22 61.7289 712.38 61.7289C712.7 61.7289 712.86 61.9209 712.86 62.3049C712.86 62.6889 712.7 62.8809 712.38 62.8809C710.46 62.8809 708.7 62.8169 707.1 62.6889C705.5 62.5609 703.484 62.4969 701.052 62.4969C698.748 62.4969 696.892 62.5609 695.484 62.6889C694.14 62.8169 692.476 62.8809 690.492 62.8809C690.236 62.8809 690.108 62.6889 690.108 62.3049C690.108 61.9209 690.236 61.7289 690.492 61.7289C692.22 61.7289 693.724 61.4089 695.004 60.7689C696.284 60.0649 697.468 58.8809 698.556 57.2169C699.708 55.4889 700.956 53.0249 702.3 49.8249L722.556 2.01686C722.684 1.82486 722.908 1.72886 723.228 1.72886C723.548 1.72886 723.74 1.82486 723.804 2.01686L746.46 49.7289C747.932 52.8649 749.244 55.3289 750.396 57.1209C751.548 58.8489 752.668 60.0649 753.756 60.7689C754.908 61.4089 756.156 61.7289 757.5 61.7289ZM825.386 62.8809C824.298 62.8809 822.538 61.6009 820.106 59.0409C817.738 56.4809 814.826 52.8329 811.37 48.0969C807.978 43.2969 804.17 37.6009 799.946 31.0089L805.322 29.2809C810.762 37.3449 815.37 43.7449 819.146 48.4809C822.986 53.1529 826.346 56.5449 829.226 58.6569C832.17 60.7049 834.986 61.7289 837.674 61.7289C837.866 61.7289 837.962 61.9209 837.962 62.3049C837.962 62.6889 837.866 62.8809 837.674 62.8809C834.474 62.8809 831.85 62.8809 829.802 62.8809C827.818 62.8809 826.346 62.8809 825.386 62.8809ZM799.274 2.59286C804.522 2.59286 808.522 3.68086 811.274 5.85686C814.09 7.96885 815.498 10.8809 815.498 14.5929C815.498 17.0249 814.954 19.3289 813.866 21.5049C812.778 23.6169 811.306 25.5049 809.45 27.1689C807.594 28.7689 805.418 30.0489 802.922 31.0089C800.49 31.9689 797.93 32.4489 795.242 32.4489C794.602 32.4489 793.866 32.4489 793.034 32.4489C792.266 32.3849 791.562 32.3209 790.922 32.2569V55.1049C790.922 56.9609 791.082 58.3689 791.402 59.3289C791.786 60.2889 792.554 60.9289 793.706 61.2489C794.922 61.5689 796.714 61.7289 799.082 61.7289C799.274 61.7289 799.37 61.9209 799.37 62.3049C799.37 62.6889 799.274 62.8809 799.082 62.8809C797.546 62.8809 795.818 62.8489 793.898 62.7849C792.042 62.7209 789.994 62.6889 787.754 62.6889C785.642 62.6889 783.594 62.7209 781.61 62.7849C779.69 62.8489 777.93 62.8809 776.33 62.8809C776.202 62.8809 776.138 62.6889 776.138 62.3049C776.138 61.9209 776.202 61.7289 776.33 61.7289C778.698 61.7289 780.458 61.5689 781.61 61.2489C782.826 60.9289 783.658 60.2889 784.106 59.3289C784.554 58.3689 784.778 56.9609 784.778 55.1049V10.6569C784.778 8.80086 784.554 7.42486 784.106 6.52886C783.722 5.56886 782.954 4.92885 781.802 4.60885C780.65 4.22486 778.89 4.03286 776.522 4.03286C776.33 4.03286 776.234 3.84086 776.234 3.45686C776.234 3.07286 776.33 2.88086 776.522 2.88086C778.058 2.88086 779.786 2.94486 781.706 3.07286C783.626 3.13686 785.642 3.16886 787.754 3.16886C789.418 3.16886 791.37 3.07286 793.61 2.88086C795.85 2.68886 797.738 2.59286 799.274 2.59286ZM808.97 17.9529C808.97 14.4329 808.426 11.6809 807.338 9.69686C806.314 7.64886 804.938 6.20886 803.21 5.37686C801.482 4.48086 799.498 4.03286 797.258 4.03286C795.722 4.03286 794.474 4.16086 793.514 4.41686C792.554 4.67286 791.882 5.28086 791.498 6.24086C791.114 7.20086 790.922 8.73685 790.922 10.8489V29.8569C791.818 29.9849 792.778 30.0809 793.802 30.1449C794.826 30.2089 795.754 30.2409 796.586 30.2409C801.002 30.2409 804.17 29.3129 806.09 27.4569C808.01 25.5369 808.97 22.3689 808.97 17.9529ZM880.284 63.2649C878.428 63.2649 876.124 63.1689 873.372 62.9769C870.684 62.7849 868.188 62.6889 865.884 62.6889C863.772 62.6889 861.724 62.7209 859.74 62.7849C857.82 62.8489 856.092 62.8809 854.556 62.8809C854.428 62.8809 854.364 62.6889 854.364 62.3049C854.364 61.9209 854.428 61.7289 854.556 61.7289C856.86 61.7289 858.62 61.5689 859.836 61.2489C861.052 60.9289 861.852 60.2889 862.236 59.3289C862.62 58.3689 862.812 56.9609 862.812 55.1049V10.6569C862.812 8.80086 862.62 7.42486 862.236 6.52886C861.852 5.56886 861.052 4.92885 859.836 4.60885C858.684 4.22486 856.956 4.03286 854.652 4.03286C854.524 4.03286 854.46 3.84086 854.46 3.45686C854.46 3.07286 854.524 2.88086 854.652 2.88086C856.188 2.88086 857.916 2.94486 859.836 3.07286C861.756 3.13686 863.772 3.16886 865.884 3.16886C867.996 3.16886 870.268 3.10486 872.7 2.97686C875.132 2.78486 877.212 2.68886 878.94 2.68886C885.724 2.68886 891.644 3.96886 896.7 6.52886C901.82 9.08886 905.788 12.5769 908.604 16.9929C911.42 21.4089 912.828 26.3689 912.828 31.8729C912.828 36.6729 911.964 41.0249 910.236 44.9289C908.572 48.7689 906.204 52.0649 903.132 54.8169C900.124 57.5049 896.636 59.5849 892.668 61.0569C888.764 62.5289 884.636 63.2649 880.284 63.2649ZM879.324 61.8249C884.444 61.8249 888.956 60.7689 892.86 58.6569C896.764 56.4809 899.836 53.3129 902.076 49.1529C904.38 44.9929 905.532 39.9369 905.532 33.9849C905.532 28.4169 904.476 23.3929 902.364 18.9129C900.252 14.3689 897.276 10.7849 893.436 8.16085C889.66 5.47285 885.116 4.12885 879.804 4.12885C875.964 4.12885 873.212 4.51286 871.548 5.28086C869.884 6.04886 869.052 7.90486 869.052 10.8489V54.0489C869.052 56.7369 869.692 58.7209 870.972 60.0009C872.316 61.2169 875.1 61.8249 879.324 61.8249ZM945.891 14.1129C945.891 16.7369 946.531 19.0089 947.811 20.9289C949.155 22.7849 950.851 24.4169 952.899 25.8249C954.947 27.2329 957.123 28.6409 959.427 30.0489C961.795 31.3929 964.067 32.8329 966.243 34.3689C968.483 35.9049 970.307 37.7289 971.715 39.8409C973.187 41.9529 973.923 44.5449 973.923 47.6169C973.923 50.6889 973.155 53.4729 971.619 55.9689C970.083 58.4009 967.843 60.3529 964.899 61.8249C962.019 63.2969 958.435 64.0329 954.147 64.0329C952.611 64.0329 951.075 63.9049 949.539 63.6489C948.067 63.4569 946.563 63.1049 945.027 62.5929C943.555 62.0809 942.083 61.4409 940.611 60.6729C940.291 60.4809 940.067 60.2569 939.939 60.0009C939.875 59.6809 939.811 59.2969 939.747 58.8489L938.499 45.7929C938.435 45.4729 938.563 45.3129 938.883 45.3129C939.267 45.2489 939.491 45.3449 939.555 45.6009C940.003 47.5209 940.643 49.4729 941.475 51.4569C942.307 53.4409 943.395 55.2649 944.739 56.9289C946.083 58.5929 947.715 59.9369 949.635 60.9609C951.555 61.9849 953.795 62.4969 956.355 62.4969C958.211 62.4969 960.003 62.1449 961.731 61.4409C963.523 60.7369 964.963 59.5849 966.051 57.9849C967.203 56.3849 967.779 54.2089 967.779 51.4569C967.779 48.3209 967.075 45.7289 965.667 43.6809C964.323 41.5689 962.595 39.7449 960.483 38.2089C958.371 36.6729 956.131 35.2329 953.763 33.8889C951.523 32.4809 949.347 31.0409 947.235 29.5689C945.187 28.0969 943.491 26.3689 942.147 24.3849C940.867 22.3369 940.227 19.8089 940.227 16.8009C940.227 13.4089 941.091 10.6249 942.819 8.44886C944.547 6.20885 946.787 4.54486 949.539 3.45686C952.291 2.36886 955.139 1.82486 958.083 1.82486C959.875 1.82486 961.731 2.01686 963.651 2.40085C965.571 2.72086 967.459 3.29686 969.315 4.12885C969.827 4.32086 970.179 4.57686 970.371 4.89686C970.627 5.15286 970.755 5.44086 970.755 5.76086L971.427 16.7049C971.427 16.9609 971.267 17.1209 970.947 17.1849C970.627 17.1849 970.403 17.0569 970.275 16.8009C970.147 15.5209 969.795 14.1129 969.219 12.5769C968.643 10.9769 967.811 9.47286 966.723 8.06486C965.635 6.65685 964.259 5.50485 962.595 4.60885C960.931 3.71285 958.915 3.26485 956.547 3.26485C954.051 3.26485 952.003 3.80886 950.403 4.89686C948.867 5.92086 947.715 7.26486 946.947 8.92886C946.243 10.5289 945.891 12.2569 945.891 14.1129Z" fill="white"/>
</svg>
